<svg id="Layer_1" data-name="Layer 1" xmlns="http://www.w3.org/2000/svg" viewBox="0 0 178.42 207.65"><defs><style>.cls-1{stroke:#000;stroke-width:0.18px;}.cls-1,.cls-3{stroke-miterlimit:10;}.cls-2,.cls-3{fill:#fff;}.cls-3{stroke:#fff;stroke-width:1.52px;}</style></defs><title>logo</title><rect class="cls-1" x="0.09" y="0.09" width="178.24" height="207.47"/><g id="Black_on_White" data-name="Black on White"><path class="cls-2" d="M96.84,181.45c.06,0,.13.06.13.13s0,.09-.11.11l-.4.18A6.22,6.22,0,0,0,93,185.8a8.63,8.63,0,0,0-.22.91l0,.28s-.06.07-.09.07a.13.13,0,0,1-.11-.07q0-.09-.06-.21l-.16-.76A6.26,6.26,0,0,0,90.76,183a4,4,0,0,0-1.84-1.13,1,1,0,0,0-.33-.06c-.09,0-.2,0-.22-.11s.11-.15.18-.16a4.38,4.38,0,0,0,2.1-1.54,8.16,8.16,0,0,0,1.68-3.61,1.3,1.3,0,0,1,.11-.35.15.15,0,0,1,.11-.07s.06,0,.08.05a.57.57,0,0,1,.07.29,6.22,6.22,0,0,0,1.82,3.93,4.28,4.28,0,0,0,1.85,1.1A2.62,2.62,0,0,1,96.84,181.45Z" transform="translate(0.09 0.09)"/><path class="cls-2" d="M151.7,157a7.26,7.26,0,0,1,0,.79l-.27,7.43c0,.66-.22.88-.89,1-1.57.3-3.15.57-4.72.86l-9.14,1.65-9.3,1.66c-1.1.2-2.21.36-3.31.58a1.24,1.24,0,0,1-1.31-.45c-1.28-1.46-2.58-2.89-3.84-4.35a1.81,1.81,0,0,0-1.4-.68c-1.41-.07-2.81-.23-4.2-.36s-2.7-.22-4.07-.35l-4.08-.34L101,164l-4.07-.35a4.13,4.13,0,0,1-.49-.07c-.35-.07-.48-.22-.51-.51a.66.66,0,0,1,.4-.7,1.83,1.83,0,0,1,.47-.14l7.87-1.46,9.63-1.79c3-.55,6-1.1,9-1.68a1.22,1.22,0,0,1,1.35.53c.82,1.11,1.7,2.17,2.54,3.28a.93.93,0,0,0,1.13.42q10.77-2.66,21.59-5.27a7.35,7.35,0,0,1,.84-.2C151.39,156,151.7,156.31,151.7,157Z" transform="translate(0.09 0.09)"/><path class="cls-2" d="M83.75,159.57a9.73,9.73,0,0,1,0,1.08q-.14,3.67-.27,7.38c0,.66-.2.88-.88,1-.9.19-1.79.33-2.67.5l-9.29,1.66-9.15,1.64c-1.74.31-3.47.6-5.21.95a1.48,1.48,0,0,1-1.57-.55c-1.22-1.42-2.5-2.81-3.74-4.23a1.78,1.78,0,0,0-1.28-.68c-1.35-.09-2.7-.22-4.07-.35l-4.42-.38-4.07-.35-4-.34-4.2-.37a5.22,5.22,0,0,1-.57-.07.54.54,0,0,1-.44-.51.63.63,0,0,1,.35-.66,1.94,1.94,0,0,1,.55-.15c2.74-.51,5.48-1,8.23-1.55l9.65-1.79,8.58-1.61a1.28,1.28,0,0,1,1.41.55c.76,1.06,1.6,2.08,2.41,3.13l.36.45a.49.49,0,0,0,.57.18c.51-.12,1-.23,1.53-.36l20.66-5a2.5,2.5,0,0,1,1-.09A.51.51,0,0,1,83.75,159.57Z" transform="translate(0.09 0.09)"/><path class="cls-2" d="M127.89,57.18q-.06-12.16-.11-24.33V31.79c0-.6-.16-.76-.77-.76-2,0-3.91.2-5.86.18-.44,0-.64.2-.68.64a4.69,4.69,0,0,0,0,.53c0,1.31.1,2.61.13,3.91,0,.78,0,1.55.06,2.33.09,1.36.09,2.71.11,4.08,0,.16.07.34-.15.49a1.73,1.73,0,0,1-.42-.68l-4.89-9.4c-.19-.33-.35-.66-.53-1a1.17,1.17,0,0,0-.82-.58,3.18,3.18,0,0,0-.61,0h-4.67c-1.08,0-1.17.09-1.17,1.15V58.53a.58.58,0,0,0,.49.58,1.19,1.19,0,0,0,.37.06h5.2a1.26,1.26,0,0,0,.51-.11,1.07,1.07,0,0,0,.61-1.1c-.13-2.17-.24-4.36-.35-6.53-.07-1.19-.17-2.36-.24-3.53a1.31,1.31,0,0,1,.07-.77,1.48,1.48,0,0,1,.55.72c2,3.47,4,6.94,5.9,10.41a1.56,1.56,0,0,0,1.57.91c.93,0,1.86,0,2.78-.06.65,0,1.31,0,2-.11s1-.32,1-1C127.91,57.67,127.89,57.42,127.89,57.18Z" transform="translate(0.09 0.09)"/><path class="cls-2" d="M35.45,53.4c0-1-.22-1.5-1.59-1.32a5.47,5.47,0,0,1-5.81-3.14,7.64,7.64,0,0,1-.6-2.39,8.21,8.21,0,0,1,1.29-5.61,6.79,6.79,0,0,1,4.61-3.1c.43-.07.89-.07,1.35-.13s.67-.18.67-.78c0-1.06,0-2.12.11-3.16a18.44,18.44,0,0,0,0-2.1c0-.79-.33-1.08-1.1-1.19a1.42,1.42,0,0,0-.29,0,13,13,0,0,0-8,2.36,15.45,15.45,0,0,0-5.62,17.84,13.27,13.27,0,0,0,8,8.27,12.26,12.26,0,0,0,6,.66c1-.11,1-.38,1-1.13S35.45,54.24,35.45,53.4Z" transform="translate(0.09 0.09)"/><path class="cls-2" d="M102.76,43.57c-.16-.31-.47-.33-.78-.33H97.39c-.93,0-1,0-.78-.91.58-3.3,1.15-6.61,1.73-9.91a5.31,5.31,0,0,0,.09-1,.64.64,0,0,0-.58-.68,1.7,1.7,0,0,0-.39,0l-4.89.06c-.18,0-.35,0-.53,0a.76.76,0,0,0-.69.61,2.21,2.21,0,0,0-.11.51l-.77,5c-.38,2.52-.77,5.06-1.17,7.58-.14,1-.33,2-.47,3a.88.88,0,0,0,.91,1.1c.22,0,.46,0,.68,0l2.63,0c.34,0,.4.09.31.42s-.19.56-.3.85c-.73,2.41-1.84,6.78-2.86,10.36-.46,1.61-.9,3.05-1.26,4.09a2.14,2.14,0,0,0-.2.78.52.52,0,0,0,.43.59.49.49,0,0,0,.42-.15,5.12,5.12,0,0,0,.53-.62c.73-1,1.48-2.1,2.23-3.34,3.22-5.2,6.65-12.14,9.73-16.29.19-.24.35-.49.53-.73A.78.78,0,0,0,102.76,43.57Z" transform="translate(0.09 0.09)"/><path class="cls-2" d="M59.81,40.87a16.14,16.14,0,0,0-2.87-6.65,10.16,10.16,0,0,0-3.65-3.08,7.51,7.51,0,0,0-5.64-.44,9.45,9.45,0,0,0-4.59,3.16,17.43,17.43,0,0,0-3.8,10.35,19.09,19.09,0,0,0,.3,4.71A17,17,0,0,0,42,55.21a11.2,11.2,0,0,0,3.15,3.21,7.82,7.82,0,0,0,3.56,1.32A8.12,8.12,0,0,0,54.59,58a13.28,13.28,0,0,0,4-5.29,18.86,18.86,0,0,0,1.58-8A19.35,19.35,0,0,0,59.81,40.87Zm-7,9.13a8.53,8.53,0,0,1-1,1.77,4.28,4.28,0,0,1-1.09,1,2.35,2.35,0,0,1-2.87-.17,4.2,4.2,0,0,1-1-1.26,8,8,0,0,1-.95-2.76,15.57,15.57,0,0,1,.53-8,7.67,7.67,0,0,1,1.26-2.38,4.54,4.54,0,0,1,.8-.78,2.36,2.36,0,0,1,3,.05A4.41,4.41,0,0,1,52.63,39a9.46,9.46,0,0,1,1,3.51c.1.68.11,1.35.17,1.9A16.42,16.42,0,0,1,52.78,50Z" transform="translate(0.09 0.09)"/><path class="cls-2" d="M84.08,43a14.1,14.1,0,0,0-15.93-12,8.79,8.79,0,0,0-2.11.51.62.62,0,0,0-.46.62v.68c0,2.13,0,4.27,0,6.39s.09,8.23.09,9.33c0,3.2,0,6.37.05,9.57,0,.89.17,1.09,1,1.3a13.27,13.27,0,0,0,5.1.21A13.89,13.89,0,0,0,80.3,55.1,14.27,14.27,0,0,0,84.08,43Zm-9.74,9.94a5.12,5.12,0,0,1-1.46.91,3.39,3.39,0,0,1-.73.18c-.56.06-.73-.09-.78-.64v-.29c0-2.41,0-7.21.09-7.21V38.93c0-1.09.18-1.24,1.28-1.22A4,4,0,0,1,76,39.35a7,7,0,0,1,1.46,3.35,12,12,0,0,1-1,7.47A8.06,8.06,0,0,1,74.34,52.91ZM67,58.06a.26.26,0,0,1,0,.09.26.26,0,0,0,0-.09Z" transform="translate(0.09 0.09)"/><path class="cls-2" d="M159.37,39.9a3.31,3.31,0,0,0-1-.09,12.25,12.25,0,0,0-3.39.64l-.42.16c-.19.06-.32,0-.33-.18s0-.45,0-.67c-.05-2.76-.09-5.52-.15-8.28,0-.74-.12-.89-.87-.89-1.68,0-3.36,0-5,0-.68,0-.9.23-.93.89v.39c0,.42-.1.45-.44.27-.11-.06-.22-.13-.33-.18a9.31,9.31,0,0,0-9.19,16.2,10.15,10.15,0,0,0,2.45,1c.55.13,1.13.2,1.73.31a.69.69,0,0,1-.27.44A5.79,5.79,0,0,0,140,51.5a8.4,8.4,0,0,0-.83,3.1,5.3,5.3,0,0,0,.86,3.58,6.73,6.73,0,0,0,3.65,2.63,9.53,9.53,0,0,0,4.31.33,6.49,6.49,0,0,0,3.86-1.84,8.3,8.3,0,0,0,2.06-3.47,16.15,16.15,0,0,0,.69-4.53c0-1.59.1-3.16.11-4.73a3.63,3.63,0,0,1,1.12-2.7,1,1,0,0,0,.14-.17,10.22,10.22,0,0,1,3.53-2.54c.29-.11.55-.25.53-.64S159.83,40,159.37,39.9ZM146.7,56a1.28,1.28,0,0,1-1.39-1.26,2.16,2.16,0,0,1,0-.36,4.29,4.29,0,0,1,2.05-3.64,2.3,2.3,0,0,1,1-.34.94.94,0,0,1,1.14.91,3.75,3.75,0,0,1,0,.82A5.55,5.55,0,0,1,148,55.33a1.85,1.85,0,0,1-1.3.64Zm-7.51-18.7a3.63,3.63,0,0,1,5.7-.11,3.93,3.93,0,0,1,1,2.69,3.69,3.69,0,0,1-3.31,3.81,3.55,3.55,0,0,1-2.77-.89A4,4,0,0,1,139.19,37.27Z" transform="translate(0.09 0.09)"/><path class="cls-2" d="M88.41,102.65c-.51,0-1,0-1.54.06-2,0-4.05.2-6.08.21l-7.27.22a3.94,3.94,0,0,0-.69,0c-.66.09-.86.31-.79,1,.17,1.77.11,3.54.2,5.31.13,2.92.21,5.86.3,8.8l.27,8.66c.09,2.9.17,5.83.27,8.73.08,2,.13,4,.19,6,0,.34,0,.69,0,1,0,.69.27.87.93.75L86.11,141c.71-.14,1.42-.27,2.11-.43.5-.11.61-.28.64-.77v-.27c0-1.28,0-2.56,0-3.86,0-1,0-2-.11-3-.08-.61-.15-.66-.73-.68a21.52,21.52,0,0,0-2.65.22l-2.78.33c-.42,0-.53-.06-.56-.49l-.11-1.81c-.06-.86,0-1.72-.09-2.59-.11-1,0-1.1,1-1.14s2-.09,3.07-.14c.58,0,.73-.19.76-.77v-.64c-.05-1.9-.12-3.82-.18-5.73a4.41,4.41,0,0,0-.09-.62c-.13-.53-.2-.63-.75-.61-1,0-1.95,0-2.94.08a8.24,8.24,0,0,1-1.11,0c-.41-.06-.46-.11-.5-.51,0-.15,0-.28,0-.42-.06-1,0-2-.13-3a10.81,10.81,0,0,1,0-1.4c0-.57,0-.6.64-.66h.07l4.75-.27c.7-.06,1.39-.09,2.08-.19s.73-.21.77-.87c.09-2.38.11-4.75.11-7.12C89.3,102.85,89.08,102.65,88.41,102.65Z" transform="translate(0.09 0.09)"/><path class="cls-2" d="M42.86,148c-.07-1.86-.35-3.7-.49-5.57,0-.23,0-.45-.08-.69s-.07-.6-.12-.91-.22-.53-.61-.59a3.41,3.41,0,0,0-.56,0,11.59,11.59,0,0,1-4.42-.89,12.13,12.13,0,0,1-5.9-5.37,15.45,15.45,0,0,1,.69-16.16,12.18,12.18,0,0,1,7.27-5.11c.19-.06.37-.08.55-.13a.82.82,0,0,0,.58-.55,2.69,2.69,0,0,0,.13-.9c.08-1.69-.2-3.39-.2-5.09v-1.94c0-1-.2-1.18-1.17-1.27a1.94,1.94,0,0,0-.34,0,15.22,15.22,0,0,0-3.62.34,17.16,17.16,0,0,0-8,4.31,22.51,22.51,0,0,0-5.44,8,29.28,29.28,0,0,0-.71,20.29,23,23,0,0,0,6.05,9.6,16.27,16.27,0,0,0,12.65,4.53,19.81,19.81,0,0,0,2.63-.37C42.81,149.27,42.9,149.11,42.86,148Z" transform="translate(0.09 0.09)"/><path class="cls-2" d="M138.85,103.27v-.49a.79.79,0,0,0-.61-.77,2.14,2.14,0,0,0-.84-.05H127.12s-6.85.11-10.28.11h-.62a1.16,1.16,0,0,0-1.06,1,2.88,2.88,0,0,0,0,.42c0,2.39,0,4.8,0,7.19a10,10,0,0,0,.09,1.24c0,.44.18.59.6.63s.66,0,1,0c1.68,0,3.36-.07,5-.09.55,0,.6.06.66.59v.22c0,1.58,0,3.16.13,4.74s.07,3.13.12,4.68c.13,3.32.21,6.66.3,10,0,1.55,0,3.12.12,4.67.11,2.45.15,4.9.21,7.35,0,1,.23,1.22,1.27,1s2.14-.46,3.22-.69,2.32-.52,3.47-.81c.51-.13.6-.27.6-.78V143c0-2.53,0-5.07-.09-7.61-.07-7.32,0-14.65-.13-22,0-1.19,0-1,1-1,1.68,0,3.36,0,5-.09,1,0,1.1-.15,1.1-1.17Q138.86,107.18,138.85,103.27Z" transform="translate(0.09 0.09)"/><path class="cls-2" d="M156.41,102.91c0-.11,0-.24,0-.35a.63.63,0,0,0-.55-.62,1.5,1.5,0,0,0-.42,0l-2.65.07c-3.62.13-7.21.28-10.83.39-.73,0-1,.34-1,1v.27c0,1.79-.06,3.58-.09,5.39-.08,4.53,0,9-.17,13.77v2.86q0,4.31-.09,8.61c0,2.53-.06,5.07-.07,7.61V142c0,.55.23.69.78.56l13.88-2.9c.68-.15.82-.29.8-1,0-2.14-.07-4.3-.12-6.43,0-.26-.06-.51-.09-.77a.43.43,0,0,0-.44-.4h0c-.36,0-.75,0-1.11,0-1.45.15-2.87.31-4.31.48-.59.07-.66,0-.68-.57s0-1.17,0-1.75c0-1,0-2,0-3,0-.55,0-.57.53-.61.75,0,1.48-.09,2.23-.12.18,0,.37,0,.57,0a.88.88,0,0,0,.84-1v-.42c0-1.17,0-2.34.11-3.49.05-.91.05-1.83.05-2.72,0-.64-.22-.82-.86-.82l-.34,0c-.86,0-1.72.07-2.6.09-.54,0-.58,0-.58-.51,0-1.61-.06-3.22-.07-4.82,0-.59.11-.68.69-.74l2.94-.16a25.74,25.74,0,0,0,2.92-.24c.61-.09.7-.22.71-.84C156.32,107.56,156.45,105.24,156.41,102.91Z" transform="translate(0.09 0.09)"/><path class="cls-2" d="M121.66,145.73c0-.18-.11-.36-.14-.53q-5.33-18.1-10.6-36.21c-.54-1.9-1.11-3.8-1.69-5.7a1.21,1.21,0,0,0-1.48-1c-2.85.09-5.68.15-8.53.2l-.57,0A.69.69,0,0,0,98,103c0,.2-.11.4-.14.6-.07.42-.13.82-.2,1.24-.4,2.49-.81,5-1.19,7.45-.35,2.18-.69,4.37-1,6.56-.4,2.48-.79,5-1.19,7.45s-.78,4.91-1.17,7.38c-.43,2.76-.89,5.51-1.33,8.27-.4,2.56-.82,5.11-1.22,7.65-.11.72-.22,1.43-.33,2.1s.24.86.8.79l.2-.06,5.35-1,2.82-.53a.94.94,0,0,0,.84-1c.07-.76.21-1.51.32-2.28.31-2.1.63-4.18.94-6.28.18-1.23.36-2.43.54-3.65.08-.5.09-.5.57-.55l1.73-.22,4.31-.49c.75-.1.75-.17,1,.69.71,2.79,1.45,5.59,2.16,8.38.16.66.33,1.32.51,2,.13.47.27.56.77.49.07,0,.12,0,.2,0l6.74-1.18a6.86,6.86,0,0,0,1.42-.35C121.68,146.24,121.73,146.1,121.66,145.73Zm-20.52-17.49c0-.62.14-1.25.23-1.87.4-2.74.82-5.48,1.24-8.21.08-.52.15-1,.26-1.52s.33-.71.79-.73.65.15.82.68.27,1,.42,1.55q1.14,4.38,2.32,8.76a2.63,2.63,0,0,1,.12.82.45.45,0,0,1-.43.53h0a7.23,7.23,0,0,1-.9.13l-3.76.33v0a3.27,3.27,0,0,1-.62,0C101.23,128.75,101.1,128.64,101.14,128.24Zm12,18.42s0,0,0,0S113.1,146.64,113.1,146.66Z" transform="translate(0.09 0.09)"/><path class="cls-2" d="M103.62,118.72a2,2,0,0,0-.09.22A1,1,0,0,1,103.62,118.72Z" transform="translate(0.09 0.09)"/><path class="cls-2" d="M105.94,127c0,.09,0,.17,0,.26C106,127.18,106,127.1,105.94,127Z" transform="translate(0.09 0.09)"/><path class="cls-2" d="M71.3,143.14a3,3,0,0,0-.26-.64c-.44-.8-.88-1.59-1.3-2.39q-3.83-7.38-7.67-14.76c-.51-1-.47-.71.11-1.51a25.41,25.41,0,0,0,2.61-4.3,14.38,14.38,0,0,0,1.52-6.81,9.12,9.12,0,0,0-2.63-6.15,12.18,12.18,0,0,0-4.88-3A22.84,22.84,0,0,0,51,102.34a35.42,35.42,0,0,0-4,.24c-1,.13-2,.29-3,.47-.53.09-.62.22-.64.75v.28c.07,1.88.17,3.76.26,5.66.11,2.37.2,4.74.29,7.12.09,2.06.18,4.14.27,6.21.11,2.43.2,4.84.29,7.27.1,2,.19,4,.26,6,.09,2.36.2,4.72.29,7,.08,1.54.13,3.07.19,4.62a1.47,1.47,0,0,0,0,.42.66.66,0,0,0,.77.57l.62-.07,6.66-1.24c.64-.13.79-.28.84-.92a1.48,1.48,0,0,0,0-.42c0-1.35-.12-2.7-.18-4-.07-1.5-.11-3-.18-4.48-.11-2.3-.24-4.6-.37-6.9,0-.22-.11-.58.08-.64s.34.29.47.49q2.85,4.74,5.64,9.5c.86,1.44,1.78,2.85,2.52,4.35.57,1.11.68,1.15,1.9.91l4.51-.93c.72-.15,1.43-.27,2.12-.44A.78.78,0,0,0,71.3,143.14ZM51.83,120.66c-.64,0-.71-.09-.75-.73-.11-1.59-.2-3.16-.31-4.73a12.18,12.18,0,0,1-.09-1.88c0-.44,0-.83,0-1.19,0-.66.34-.93,1-.9A7.1,7.1,0,0,1,57,113.61a5,5,0,0,1,.64,1A2.43,2.43,0,0,1,57.8,116a4.83,4.83,0,0,1-1.59,2.86A6.4,6.4,0,0,1,51.83,120.66Z" transform="translate(0.09 0.09)"/><path class="cls-3" d="M119.8,89.56a3.41,3.41,0,0,0,.11-1.23c-.06-6.06-.13-12.14-.2-18.2a6.29,6.29,0,0,1,0-1,.69.69,0,0,1,.61-.66c.33,0,.56.15.71.53a3.69,3.69,0,0,1,.13,1.24c0,2.56,0,5.1,0,7.65.06,5.1.11,10.21.18,15.31,0,.33,0,.64,0,1a.74.74,0,0,1-.61.67.68.68,0,0,1-.73-.36,9,9,0,0,1-.47-1.06q-3.64-9.51-7.29-19a2.94,2.94,0,0,0-.55-1.17.31.31,0,0,0-.22.35c0,.35,0,.71,0,1.06q-.06,9.39-.15,18.79a8.65,8.65,0,0,1,0,.88.64.64,0,0,1-.61.55.66.66,0,0,1-.67-.46,2.05,2.05,0,0,1-.13-1c0-1.59,0-3.16.07-4.75q.06-9.34.11-18.7c0-.29,0-.58,0-.88a.81.81,0,0,1,.64-.76.79.79,0,0,1,.95.47,8.53,8.53,0,0,1,.4,1c2.37,6.21,4.77,12.42,7.14,18.61A2.05,2.05,0,0,0,119.8,89.56Z" transform="translate(0.09 0.09)"/><path class="cls-3" d="M95.24,93.59a1.74,1.74,0,0,1-.15,1,.69.69,0,0,1-.71.39.6.6,0,0,1-.55-.5,2.17,2.17,0,0,1,0-.67c-.08-8-.13-15.93-.21-23.91,0-1.2.3-1.5,1.5-1.44a9.39,9.39,0,0,1,5.61,1.9,6,6,0,0,1,2.54,5.28A5.86,5.86,0,0,1,101.81,79a8.12,8.12,0,0,1-4.44,2.81c-1.11.27-.89.42-.42,1.19,2,3.28,4,6.59,6,9.88a10.11,10.11,0,0,1,.56,1,.67.67,0,0,1-.33.91.66.66,0,0,1-.8-.16,4.57,4.57,0,0,1-.6-.88c-2-3.21-3.89-6.43-5.85-9.64-.18-.29-.29-.84-.64-.75s-.16.62-.18.93c0,1.52,0,3.05,0,4.57C95.15,88.94,95.24,92,95.24,93.59ZM95,75.17h0c0,.36,0,.71,0,1.07,0,1.19,0,2.4,0,3.6,0,.81.15.91.93.82a7.1,7.1,0,0,0,2.39-.75,6.16,6.16,0,0,0,2.67-2.33,4.28,4.28,0,0,0,.49-3.64,6.55,6.55,0,0,0-6.11-4,.38.38,0,0,0-.39.35c0,.25,0,.51,0,.78,0,1.35,0,2.71,0,4.06Z" transform="translate(0.09 0.09)"/><path class="cls-3" d="M79,82.67c-.73,0-.78.06-1,.79-.37,1.46-.7,2.92-1,4.36q-.68,2.94-1.38,5.86a5.29,5.29,0,0,1-.26.83.66.66,0,0,1-.78.4.65.65,0,0,1-.53-.7,4.4,4.4,0,0,1,.12-.74q2.55-10.8,5.12-21.57c.2-.84.38-1.68.62-2.5.16-.59.42-.79.91-.83a.73.73,0,0,1,.82.52,4,4,0,0,1,.24.82l5.31,23.77a1.37,1.37,0,0,1,.08.66.7.7,0,0,1-.55.59.62.62,0,0,1-.71-.35,4.82,4.82,0,0,1-.29-.91C85,90.43,84.26,87.2,83.51,84c-.31-1.32-.05-1.32-1.59-1.32H80.68S79.57,82.65,79,82.67Zm1.79-10.28a.76.76,0,0,0-.23.55c-.61,2.48-1.19,5-1.78,7.43a1.73,1.73,0,0,0-.05.38c0,.37,0,.46.4.48,1.06,0,2.1,0,3.16,0,.53,0,.6-.13.53-.64a1.72,1.72,0,0,0-.09-.36l-1.59-7.18a.94.94,0,0,0-.35-.66Z" transform="translate(0.09 0.09)"/><path class="cls-3" d="M59.79,81.52V70.2c0-1.41.2-1.63,1.59-1.63H67a5.15,5.15,0,0,1,.68,0,.68.68,0,0,1,.63.62.67.67,0,0,1-.6.75A4.87,4.87,0,0,1,67,70H62.47c-.25,0-.51,0-.76,0a.4.4,0,0,0-.44.4v0c0,.21,0,.43,0,.67v8.93a3.7,3.7,0,0,0,0,.48c0,.47.11.56.59.56l1.91,0a5.15,5.15,0,0,1,.68,0,.74.74,0,0,1,.6.66.71.71,0,0,1-.47.66,1.88,1.88,0,0,1-.84.09l-1.92.11a.5.5,0,0,0-.51.49v.08c0,.18,0,.38,0,.56V92c0,1.11,0,1.13,1.13,1.11L66.91,93a4.37,4.37,0,0,1,1,.09.58.58,0,0,1,.49.62.59.59,0,0,1-.47.64,4.82,4.82,0,0,1-.86.09c-1.88,0-3.78,0-5.66.09a2.7,2.7,0,0,1-.57,0,1.07,1.07,0,0,1-.95-.93,4.93,4.93,0,0,1,0-.86c0-3.74,0-7.48,0-11.23Z" transform="translate(0.09 0.09)"/><path class="cls-3" d="M48.39,94.58c-.73,0-1-.31-1.11-1a5.43,5.43,0,0,1,0-.57c0-7.49-.13-15-.18-22.44,0-.39,0-.77,0-1.15a.87.87,0,0,1,.18-.53.6.6,0,0,1,.84-.18.51.51,0,0,1,.2.21,1.18,1.18,0,0,1,.18.64c0,.3,0,.57,0,.86q0,7.49.08,15c0,2.3.07,4.6.1,6.9,0,.13,0,.26,0,.39,0,.36.19.51.53.51h1.63c1,0,2-.06,3-.06a6,6,0,0,1,.95.07.58.58,0,0,1,.48.63.59.59,0,0,1-.4.6,2.31,2.31,0,0,1-1,.14C53,94.52,49.33,94.6,48.39,94.58Z" transform="translate(0.09 0.09)"/><path class="cls-2" d="M30.64,81l-1,4.84c-.2,1,.07,1.28.51,1.28a2.91,2.91,0,0,0,1.81-.86.48.48,0,0,1,.29.42.53.53,0,0,1-.16.39,4.89,4.89,0,0,1-3.27,1.71c-1.06,0-1.74-.66-1.35-2.55L28.54,81h-.85a.76.76,0,0,1,.73-1h.34l.31-1.43a1.37,1.37,0,0,1,1.45-1.09,1.48,1.48,0,0,1,.8.22L30.86,80h1.26c.09.55-.18,1-.73,1Z" transform="translate(0.09 0.09)"/><path class="cls-2" d="M38.84,82.93c0,2.57-1.84,5.82-4.54,5.82-1.78,0-2.54-1.42-2.54-3,0-2.61,1.81-5.86,4.42-5.86C38,79.84,38.84,81.23,38.84,82.93ZM34,85.16c0,1.51.51,2.1,1.11,2.1,1.37,0,2.47-2.65,2.47-4.48,0-.93-.29-1.64-1-1.64-1.55,0-2.57,2.32-2.57,4Z" transform="translate(0.09 0.09)"/><path class="cls-2" d="M134,81.12a1.47,1.47,0,0,1,1.1-.47,1.51,1.51,0,0,1,.77.21l-1.14,5.37c-.2.92.06,1.21.5,1.21a2.66,2.66,0,0,0,1.7-.82.41.41,0,0,1,.27.38.58.58,0,0,1-.15.37,4.5,4.5,0,0,1-2.81,1.6c-.77,0-1.53-.36-1.51-1.64A3.29,3.29,0,0,1,130.3,89c-1.7,0-2-1.7-2-2.74,0-2.85,1.83-5.66,4.09-5.66A2.6,2.6,0,0,1,134,81.12Zm-.33.82a2.25,2.25,0,0,0-.76-.13c-2,0-2.67,2.56-2.67,4.35,0,.82.37,1.17.88,1.17a2.36,2.36,0,0,0,1.64-1Z" transform="translate(0.09 0.09)"/><path class="cls-2" d="M137.18,81.43a3,3,0,0,1,1.83-.78c.59,0,.93.27.79.89l-.17.73a3.52,3.52,0,0,1,2.67-1.62c.86,0,1.48.67,1.09,2.39l-.8,3.74c-.09.48.11.66.44.66a2.64,2.64,0,0,0,1.7-.82A.41.41,0,0,1,145,87a.53.53,0,0,1-.15.37,4.28,4.28,0,0,1-2.94,1.6c-.82,0-1.68-.4-1.26-2.3l.7-3.21c.14-.68-.07-.95-.44-.95a2.23,2.23,0,0,0-1.44.84l-1,4.64a1.29,1.29,0,0,1-1.37,1,1.43,1.43,0,0,1-.77-.22l1.34-6.25c.07-.25,0-.4-.17-.4s-.18.08-.33.2a.59.59,0,0,1-.05-.84Z" transform="translate(0.09 0.09)"/><path class="cls-2" d="M149.07,87.35A3.25,3.25,0,0,1,146.61,89c-1.7,0-2-1.7-2-2.74,0-2.85,1.83-5.66,4.09-5.66a2.33,2.33,0,0,1,1.55.46l.41-1.9c.09-.44-.22-.53-.48-.22a.61.61,0,0,1-.24-.51c0-.37,1.17-1.15,2.05-1.15.58,0,.91.27.78.89l-1.69,8.09c-.19.82,0,1.19.36,1.19s.68-.2.91-.79a.44.44,0,0,1,.5.44c0,1.13-1.34,1.9-2.25,1.9S149.05,88.63,149.07,87.35Zm0-1L150,82a2.3,2.3,0,0,0-.78-.15c-2,0-2.67,2.56-2.67,4.35,0,.82.37,1.17.88,1.17a2.43,2.43,0,0,0,1.64-1Z" transform="translate(0.09 0.09)"/></g></svg>